<svg xmlns="http://www.w3.org/2000/svg" viewBox="0 0 900 600" role="img" aria-label="Dragon silhouette">
  <!-- Original, hand-drawn-style silhouette (not from any copyrighted source) -->
  <path fill="#ffffff" d="M781 120c-42 20-86 38-133 53-54 17-105 28-154 33-26 3-51 4-76 4-12 0-25-1-37-2 10 11 17 23 21 36 7 23 1 47-14 69-15 21-40 40-74 55-26 12-55 22-88 29 6 10 9 21 9 33 0 24-12 50-35 74-20 21-48 40-83 56-35 15-76 27-123 33 41 9 78 23 108 42 39 24 66 54 81 87 14 30 16 62 6 94-6 21-18 41-35 60 49-10 93-26 132-47 41-22 75-49 101-81 23-28 38-59 44-92 4-19 3-38-2-56 21-6 41-14 59-23 42-20 73-46 93-76 16-25 23-50 20-74-2-13-7-25-15-36 30-9 57-20 81-34 43-25 73-54 92-85 12-20 18-40 18-58 0-21-8-40-24-56-15-15-37-27-65-35 52-22 101-49 148-82Z"/>
  <path fill="#ffffff" d="M330 146c-18 9-37 14-58 16-19 2-36 0-50-5-9-3-18-8-26-14 10 18 26 33 46 44 19 10 41 15 65 14 24-1 49-9 75-25-17-5-34-16-52-30Z" opacity="0.85"/>
  <path fill="#ffffff" d="M540 95c-23 11-47 18-72 22-21 3-42 4-62 1-17-2-33-7-48-14 17 22 41 37 71 44 29 6 62 3 98-9 24-8 48-20 71-36-20 1-40-2-58-8Z" opacity="0.8"/>
</svg>
