<svg xmlns="http://www.w3.org/2000/svg" viewBox="0 0 900 600" role="img" aria-label="Dragon silhouette">
  <!-- Original silhouette, mirrored composition with different details -->
  <path fill="#ffffff" d="M119 132c55 34 111 61 168 82-30 9-53 22-69 38-17 17-26 38-26 60 0 18 6 37 18 57 19 31 51 59 95 84 24 13 50 24 79 33-9 12-14 25-16 39-3 25 4 51 21 77 20 31 53 57 98 77 18 9 38 16 59 22-5 18-6 37-2 56 6 33 22 64 45 93 26 32 61 59 103 81 39 21 83 37 132 47-18-20-30-41-36-63-9-33-7-66 8-97 15-32 42-61 82-85 30-18 66-32 107-41-47-7-88-18-123-33-35-16-63-35-83-56-23-24-35-50-35-74 0-12 3-23 9-33-33-7-62-17-88-29-35-16-61-35-77-57-16-22-22-47-15-70 4-13 11-25 21-36-12 1-24 2-37 2-25 0-51-1-77-4-50-5-103-16-159-34-51-16-100-36-147-61Z"/>
  <path fill="#ffffff" d="M574 170c28 17 55 26 80 27 24 1 46-4 65-14 20-11 36-27 46-46-10 8-20 14-31 17-14 4-31 6-50 4-21-2-42-8-62-18-17 16-33 26-48 30Z" opacity="0.85"/>
  <path fill="#ffffff" d="M330 103c-20 7-41 9-62 7 23 17 47 29 72 37 37 12 71 15 101 9 31-6 56-21 73-44-15 7-31 11-48 13-20 2-41 1-62-2-26-4-50-12-74-20Z" opacity="0.8"/>
</svg>
