<?xml version="1.0" encoding="UTF-8"?>
<svg xmlns="http://www.w3.org/2000/svg" viewBox="0 0 1254 1254" width="1254" height="1254" role="img" aria-label="HTA Home Team Academy logo vector trace">
<rect width="1254" height="1254" fill="#ffffff"/>
<g transform="scale(0.1)">
<g transform="translate(0,12540) scale(1,-1)"
fill="#07833d" stroke="none">
<path d="M6105 11974 c-1538 -1022 -2444 -1466 -3539 -1734 -241 -58 -723
-149 -798 -150 -5 0 -8 -283 -8 -629 0 -591 -1 -630 -17 -635 -10 -2 -56 -12
-103 -21 -46 -10 -95 -21 -107 -26 l-23 -9 0 -595 c0 -327 2 -595 4 -595 2 0
53 11 114 25 61 14 118 25 126 25 14 0 16 -77 16 -748 l0 -748 -122 -30 -123
-30 -3 -562 c-1 -389 -5 -562 -13 -562 -6 0 -4 -6 4 -14 12 -12 32 -10 143 20
893 236 2106 430 3174 507 l165 12 3 519 2 519 -110 -8 -110 -7 0 810 0 809
53 7 c96 11 87 30 87 -180 l0 -187 93 6 c189 13 734 30 750 24 16 -6 16 -55
12 -619 l-6 -613 -105 -6 c-57 -3 -108 -9 -112 -13 -3 -4 -5 -238 -4 -519 l3
-512 22 2 c106 10 1096 13 1357 5 178 -6 326 -9 328 -7 2 2 3 234 3 517 l-1
513 -102 5 -103 5 -3 618 c-2 577 -1 618 15 624 16 6 502 -10 711 -24 l92 -6
0 717 0 716 -22 0 c-13 0 -140 7 -283 15 -1861 105 -3681 -18 -5520 -374 -55
-10 -102 -17 -105 -14 -3 2 -6 256 -8 563 l-3 559 33 6 c18 3 65 10 103 16
228 34 570 111 860 194 984 281 1833 706 3142 1572 l204 135 57 -38 c323 -215
808 -522 1077 -681 263 -156 678 -383 700 -383 3 0 5 77 5 170 l0 170 370 0
370 0 0 -343 0 -343 208 -76 c505 -186 969 -307 1510 -394 l32 -5 0 -1314 c0
-723 -3 -1315 -7 -1315 -5 0 -45 136 -91 303 -46 166 -93 340 -106 387 -13 47
-74 265 -135 485 -61 219 -111 405 -111 412 0 18 -37 25 -463 88 -416 61
-1278 165 -1374 165 l-23 0 0 -515 0 -515 33 0 c61 0 61 2 -28 -275 -46 -143
-160 -503 -254 -799 -95 -297 -173 -541 -175 -543 -2 -2 -56 0 -121 5 -78 5
-119 4 -121 -3 -2 -5 -3 -239 -2 -519 3 -501 3 -509 23 -511 11 -2 72 -6 135
-9 241 -13 731 -64 1183 -122 158 -21 290 -34 295 -30 6 6 11 400 12 829 l0
79 38 -6 c20 -3 61 -8 90 -12 l52 -6 0 -461 0 -462 228 -38 c484 -80 1006
-192 1435 -308 43 -11 80 -19 82 -17 1 1 4 253 6 558 l4 555 -115 28 c-63 15
-116 30 -119 32 -2 3 -23 76 -46 162 -24 87 -69 253 -101 368 l-57 210 2 1633
c2 897 0 1632 -5 1632 -4 0 -82 12 -173 26 -506 78 -1003 212 -1546 415 l-55
20 0 340 0 339 -510 0 -510 0 0 -95 c0 -52 -3 -95 -6 -95 -47 0 -984 573
-1491 912 -106 70 -196 128 -200 128 -5 0 -80 -48 -168 -106z m825 -2824 c354
-11 712 -27 803 -36 l57 -6 0 -627 c0 -345 -2 -630 -4 -632 -3 -2 -114 1 -248
7 -134 6 -316 14 -405 18 l-163 7 0 -705 0 -704 105 -7 105 -7 0 -435 0 -435
-172 8 c-95 5 -442 8 -771 8 l-597 -1 2 431 3 431 107 3 107 3 3 82 c2 45 2
362 0 705 l-2 623 -158 -6 c-335 -12 -609 -25 -649 -31 l-43 -5 0 644 0 644
198 8 c622 24 1232 30 1722 15z m-2022 -491 l-3 -444 -102 -9 c-91 -8 -102
-11 -107 -30 -8 -29 -8 -1662 0 -1719 l7 -47 103 7 104 6 -2 -433 -3 -434 -55
-3 c-373 -24 -1106 -102 -1392 -148 l-28 -4 0 439 0 439 33 6 c17 3 55 8 82
13 l50 7 3 218 c1 119 0 217 -3 217 -16 0 -407 -53 -448 -61 -28 -5 -51 -9
-53 -9 -2 0 -4 -97 -4 -216 l0 -217 63 7 c34 4 79 10 100 13 l37 6 0 -437 0
-436 -22 -9 c-13 -5 -86 -18 -163 -31 -347 -54 -805 -144 -1199 -234 -109 -25
-207 -46 -217 -46 -18 0 -19 17 -19 455 0 422 1 455 18 464 9 5 62 19 116 30
55 12 103 24 108 27 14 9 10 1744 -4 1744 -7 0 -56 -9 -108 -20 -52 -11 -103
-20 -112 -20 -17 0 -18 28 -18 454 0 353 3 457 13 463 15 10 58 19 412 88 333
64 665 122 940 164 110 17 215 33 233 36 l32 6 -2 -453 -3 -452 -100 -16 -100
-15 -3 -183 -2 -182 22 5 c28 6 300 42 383 50 117 12 105 -10 105 196 l0 181
-85 -7 -85 -7 0 449 0 450 58 6 c31 4 194 22 362 41 429 48 1038 98 1053 85 4
-3 7 -206 5 -450z m3896 360 c357 -40 1151 -151 1253 -176 17 -4 26 -17 33
-47 6 -22 49 -183 97 -356 47 -173 92 -342 100 -375 7 -33 25 -96 38 -140 13
-44 128 -465 255 -935 128 -470 241 -885 251 -921 l20 -66 115 -28 114 -29 0
-453 c0 -249 -3 -453 -8 -453 -4 0 -23 5 -42 10 -237 71 -933 212 -1457 296
l-33 5 0 421 0 420 76 -7 77 -7 -7 28 c-4 16 -12 32 -17 35 -6 3 -74 14 -152
24 -78 10 -218 28 -312 40 -93 12 -173 20 -177 18 -5 -2 -8 -15 -8 -28 0 -22
5 -24 75 -30 l75 -7 0 -426 0 -425 -47 7 c-317 44 -781 95 -1108 121 -110 9
-224 18 -253 21 l-52 5 2 432 c3 425 3 432 23 430 11 -1 60 -3 110 -4 l90 -2
32 99 c17 54 115 362 217 684 102 322 213 672 247 779 68 214 68 211 -8 211
l-43 0 0 436 0 437 78 -7 c42 -4 198 -20 346 -37z m-5296 -1121 l3 -95 -163
-22 c-90 -12 -167 -21 -171 -21 -4 0 -6 44 -5 97 l3 98 55 7 c30 4 100 14 155
22 55 7 105 13 110 12 6 -2 11 -45 13 -98z m0 -1390 l-3 -133 -115 -16 c-63
-9 -139 -19 -167 -23 l-53 -7 0 134 0 134 148 20 c81 11 157 21 170 22 23 1
23 1 20 -131z M6238 9023 c46 -2 118 -2 160 0 42 1 5 3 -83 3 -88 0 -123 -2
-77 -3z M5647 9013 c18 -2 50 -2 70 0 21 2 7 4 -32 4 -38 0 -55 -2 -38 -4z
M6897 9013 c18 -2 50 -2 70 0 21 2 7 4 -32 4 -38 0 -55 -2 -38 -4z M5343 9003
c15 -2 37 -2 50 0 12 2 0 4 -28 4 -27 0 -38 -2 -22 -4z M5155 8988 c-3 -7 -4
-236 -3 -508 l3 -495 5 508 c3 279 4 507 2 507 -1 0 -5 -6 -7 -12z M5883 8373
c20 -2 54 -2 75 0 20 2 3 4 -38 4 -41 0 -58 -2 -37 -4z M5823 8305 c0 -33 2
-45 4 -27 2 18 2 45 0 60 -2 15 -4 0 -4 -33z M5603 8003 c15 -2 37 -2 50 0 12
2 0 4 -28 4 -27 0 -38 -2 -22 -4z M7183 8003 c15 -2 37 -2 50 0 12 2 0 4 -28
4 -27 0 -38 -2 -22 -4z M5818 5733 c18 -2 45 -2 60 0 15 2 0 4 -33 4 -33 0
-45 -2 -27 -4z M6798 5733 c18 -2 45 -2 60 0 15 2 0 4 -33 4 -33 0 -45 -2 -27
-4z M4555 7295 c0 -566 1 -797 2 -512 2 285 2 749 0 1030 -1 282 -2 49 -2
-518z M2055 6940 c0 -553 1 -779 2 -502 2 276 2 728 0 1005 -1 276 -2 50 -2
-503z M8514 8740 c0 -69 1 -97 3 -62 2 34 2 90 0 125 -2 34 -3 6 -3 -63z
M8514 8505 c0 -55 1 -76 3 -47 2 29 2 74 0 100 -2 26 -3 2 -3 -53z M9350 7429
c0 -4 -18 -65 -40 -135 -21 -71 -36 -132 -32 -135 8 -7 162 -22 162 -16 0 30
-88 312 -90 286z M9675 5771 c0 -262 2 -305 15 -308 11 -3 12 -2 3 4 -10 7
-13 85 -16 308 l-2 300 0 -304z M10944 5505 c0 -165 2 -234 3 -153 2 81 2 216
0 300 -1 84 -3 18 -3 -147z M8274 10705 c0 -126 2 -177 3 -112 2 65 2 168 0
230 -1 62 -3 9 -3 -118z M6324 10035 c0 -88 2 -123 3 -77 2 46 2 118 0 160 -1
42 -3 5 -3 -83z M6325 9615 l0 -150 150 0 150 -1 -147 3 -147 4 -4 147 -3 147
1 -150z M5988 9463 c46 -2 118 -2 160 0 42 1 5 3 -83 3 -88 0 -123 -2 -77 -3z
M10425 8345 c0 -231 1 -324 2 -207 2 117 2 306 0 420 -1 114 -2 18 -2 -213z
M5908 5443 c23 -2 59 -2 80 0 20 2 1 4 -43 4 -44 0 -61 -2 -37 -4z M6638 5443
c23 -2 59 -2 80 0 20 2 1 4 -43 4 -44 0 -61 -2 -37 -4z M5593 5433 c15 -2 39
-2 55 0 15 2 2 4 -28 4 -30 0 -43 -2 -27 -4z M6173 5343 c81 -2 213 -2 295 0
81 1 14 3 -148 3 -162 0 -229 -2 -147 -3z M5693 5333 c15 -2 37 -2 50 0 12 2
0 4 -28 4 -27 0 -38 -2 -22 -4z M6923 5333 c15 -2 37 -2 50 0 12 2 0 4 -28 4
-27 0 -38 -2 -22 -4z M6203 4985 c0 -27 2 -38 4 -22 2 15 2 37 0 50 -2 12 -4
0 -4 -28z M1548 4674 c-4 -3 -332 -102 -605 -181 -29 -9 -53 -20 -53 -24 0 -5
35 -46 78 -91 42 -46 175 -189 294 -319 l216 -236 -109 -354 c-152 -493 -192
-629 -188 -633 2 -2 173 30 379 71 375 74 1179 223 1205 223 8 0 46 -44 86
-97 385 -522 986 -1098 1631 -1566 537 -389 1137 -744 1652 -975 l139 -63 136
62 c758 343 1581 875 2264 1462 179 154 514 481 668 654 113 127 317 376 389
476 l35 49 48 -6 c105 -14 832 -149 1186 -220 206 -42 376 -74 378 -72 2 2
-58 224 -133 494 l-137 491 146 168 c79 92 206 239 281 325 75 86 132 159 128
161 -6 4 -551 184 -588 195 -14 4 -49 -87 -38 -97 5 -4 104 -38 219 -75 116
-38 211 -70 213 -71 3 -3 -120 -148 -343 -405 -49 -56 -103 -118 -118 -136
l-28 -34 52 -187 c118 -431 182 -674 177 -678 -2 -2 -79 12 -173 31 -93 20
-237 48 -320 64 -511 97 -797 150 -843 156 -29 4 -54 10 -57 14 -2 3 7 40 20
81 26 83 25 84 -42 95 l-39 6 -28 -62 c-68 -150 -445 -610 -761 -925 -521
-521 -1221 -1048 -1930 -1454 -185 -106 -731 -381 -756 -381 -68 0 -751 359
-1094 575 -952 599 -1701 1265 -2235 1985 -51 69 -105 153 -121 188 -16 34
-35 65 -43 68 -13 5 -96 -12 -96 -20 0 -2 11 -37 25 -77 25 -76 23 -88 -16
-89 -9 0 -61 -9 -115 -19 -55 -11 -187 -36 -294 -56 -257 -48 -900 -174 -922
-181 -11 -3 -18 0 -18 7 0 12 157 531 231 766 l32 101 -39 44 c-21 25 -135
149 -251 278 -117 128 -213 236 -213 240 0 4 109 40 243 80 133 40 245 75 249
77 10 5 -22 91 -37 96 -7 3 -15 4 -17 1z M6204 4430 l1 -55 85 -1 85 0 -82 3
-82 4 -4 52 -3 52 0 -55z M6383 4435 c0 -33 2 -45 4 -27 2 18 2 45 0 60 -2 15
-4 0 -4 -33z M5704 4420 c1 -41 5 -55 16 -56 8 0 10 1 3 3 -7 2 -14 28 -16 56
l-3 52 0 -55z M6543 4430 c0 -30 2 -43 4 -27 2 15 2 39 0 55 -2 15 -4 2 -4
-28z M6753 4063 c15 -2 37 -2 50 0 12 2 0 4 -28 4 -27 0 -38 -2 -22 -4z M6018
3963 c23 -2 59 -2 80 0 20 2 1 4 -43 4 -44 0 -61 -2 -37 -4z M6503 3963 c26
-2 67 -2 90 0 23 2 2 3 -48 3 -49 0 -68 -1 -42 -3z M6312 3750 l-2 -216 109
-12 c142 -16 272 -50 391 -101 l95 -41 602 0 602 0 198 -232 c109 -128 214
-250 234 -272 l37 -40 79 85 c155 163 286 318 471 556 l71 91 -167 32 c-810
155 -1532 230 -2484 256 l-227 6 -4 52 c-2 28 -4 -46 -5 -164z M5995 3853
c-572 -12 -1234 -67 -1820 -148 -249 -35 -861 -141 -828 -144 6 -1 28 -25 49
-53 144 -199 547 -668 573 -668 3 0 109 122 236 270 l230 270 604 0 603 0 77
34 c128 58 370 116 485 116 l26 0 0 165 0 165 -62 -2 c-35 -1 -112 -3 -173 -5z
M6125 3424 c-311 -48 -542 -160 -745 -364 -362 -363 -464 -880 -267 -1348 106
-249 327 -473 589 -596 202 -95 322 -121 568 -121 256 1 389 30 595 132 433
215 692 673 655 1158 -42 547 -445 1002 -992 1121 -71 15 -341 27 -403 18z
m370 -80 c240 -46 446 -155 621 -329 154 -153 268 -358 316 -567 29 -128 31
-367 4 -483 -96 -412 -351 -708 -731 -850 -363 -135 -752 -97 -1083 106 -380
234 -586 664 -533 1113 43 368 290 717 636 900 220 116 517 159 770 110z
M6227 3293 c18 -2 50 -2 70 0 21 2 7 4 -32 4 -38 0 -55 -2 -38 -4z M6173 3133
c15 -2 37 -2 50 0 12 2 0 4 -28 4 -27 0 -38 -2 -22 -4z M6295 2400 l-70 -6 67
-2 c37 -1 70 3 73 8 3 6 5 9 3 8 -2 -1 -34 -4 -73 -8z M7393 2215 c0 -27 2
-38 4 -22 2 15 2 37 0 50 -2 12 -4 0 -4 -28z M4333 3128 c-264 -310 -293 -345
-293 -355 0 -10 150 -151 290 -274 147 -129 425 -348 565 -446 l30 -21 -3 126
c-12 437 188 845 543 1109 l30 22 -512 1 -511 0 -139 -162z M7122 3232 c187
-149 344 -371 426 -602 53 -151 66 -237 67 -427 0 -95 1 -173 3 -173 5 0 241
178 337 255 155 123 346 288 453 391 l104 99 -219 257 -218 257 -513 1 -513 0
73 -58z M8670 2703 l-85 -88 88 85 c81 79 92 90 84 90 -1 0 -41 -39 -87 -87z
M5285 1280 c27 -27 51 -50 54 -50 3 0 -17 23 -44 50 -27 28 -51 50 -54 50 -3
0 17 -22 44 -50z M7245 1278 l-50 -53 53 50 c48 46 57 55 49 55 -1 0 -25 -24
-52 -52z"/>
</g>
<g transform="translate(0,12540) scale(1,-1)"
fill="#06214a" stroke="none">
<path d="M6055 11494 c-643 -417 -1039 -649 -1535 -898 -812 -409 -1455 -625
-2382 -802 l-28 -6 0 -473 c0 -375 3 -473 13 -470 6 3 113 23 237 45 1706 308
3455 414 5205 315 143 -8 270 -15 283 -15 l22 0 0 -716 0 -717 -92 6 c-209 14
-695 30 -711 24 -16 -6 -17 -47 -15 -624 l3 -618 103 -5 102 -5 1 -513 c0
-283 -1 -515 -3 -517 -2 -2 -150 1 -328 7 -261 8 -1251 5 -1357 -5 l-22 -2 -3
512 c-1 281 1 515 4 519 4 4 55 10 112 13 l105 6 6 613 c4 564 4 613 -12 619
-16 6 -561 -11 -750 -24 l-93 -6 0 188 0 188 -52 -7 c-29 -3 -61 -6 -70 -6
-17 0 -18 -45 -18 -811 l0 -811 110 7 110 8 -2 -519 -3 -519 -165 -12 c-1069
-77 -2284 -271 -3175 -507 -71 -19 -131 -31 -133 -25 -4 11 -42 12 -60 1 -10
-7 -1 -36 38 -128 28 -65 57 -124 65 -130 17 -13 47 -92 37 -97 -4 -2 -116
-37 -249 -77 -134 -40 -243 -76 -243 -80 0 -4 96 -112 213 -240 116 -129 230
-253 251 -278 l39 -44 -32 -101 c-74 -235 -231 -754 -231 -766 0 -7 7 -10 18
-7 22 7 665 133 922 181 107 20 239 45 294 56 54 10 106 19 115 19 39 1 41 13
16 89 -14 40 -25 75 -25 77 0 8 83 25 96 20 8 -3 27 -34 43 -68 16 -35 70
-119 121 -188 534 -720 1283 -1386 2235 -1985 343 -216 1026 -575 1094 -575
25 0 571 275 756 381 709 406 1409 933 1930 1454 316 315 693 775 761 925 l28
62 39 -6 c67 -11 68 -12 42 -95 -13 -41 -22 -78 -20 -81 3 -4 28 -10 57 -14
46 -6 332 -59 843 -156 83 -16 227 -44 320 -64 94 -19 171 -33 173 -31 5 4
-59 247 -177 678 l-52 187 28 34 c15 18 69 80 118 136 223 257 346 402 343
405 -2 1 -97 33 -213 71 -115 37 -214 71 -219 75 -12 10 24 99 40 99 12 0 124
206 124 229 0 5 -19 14 -42 19 -24 6 -132 33 -241 61 -393 100 -802 185 -1239
258 l-228 38 0 462 0 461 -52 6 c-29 4 -70 9 -90 12 l-38 6 0 -79 c-1 -429 -6
-823 -12 -829 -5 -4 -137 9 -295 30 -452 58 -942 109 -1183 122 -63 3 -124 7
-135 9 -20 2 -20 10 -23 511 -1 280 0 514 2 519 2 7 43 8 121 3 65 -5 119 -7
121 -5 2 2 80 246 175 543 94 296 208 656 254 799 89 277 89 275 28 275 l-33
0 0 515 0 515 23 0 c96 0 958 -104 1374 -165 426 -63 463 -70 463 -88 0 -7 50
-193 111 -412 61 -220 122 -438 135 -485 l23 -85 0 195 c1 107 4 529 8 937 l6
741 -39 7 c-497 84 -1100 255 -1614 458 l-85 33 -5 325 -5 324 -202 3 -203 2
0 -230 c0 -178 -3 -230 -13 -230 -20 0 -485 237 -697 355 -341 190 -723 423
-1115 680 -97 63 -179 115 -183 115 -4 0 -101 -62 -217 -136z m710 -759 c28
-18 145 -92 260 -165 358 -228 845 -543 1202 -780 l343 -227 0 124 0 124 58
-32 c210 -120 832 -497 852 -516 13 -13 10 -14 -25 -9 -22 3 -220 19 -440 37
l-400 31 -370 248 c-585 390 -1827 1192 -1953 1259 -21 11 -43 0 -250 -130
-605 -381 -1178 -752 -1775 -1151 l-338 -226 -97 -7 c-53 -4 -250 -20 -437
-35 -186 -16 -341 -28 -342 -26 -6 5 633 394 850 517 l67 38 0 -125 0 -124
238 158 c422 282 913 600 1595 1033 l468 297 222 -140 c122 -77 245 -155 272
-173z m-545 -700 l0 -155 -155 0 -155 0 0 155 0 155 155 0 155 0 0 -155z m410
0 l0 -155 -155 0 -155 0 0 155 0 155 155 0 155 0 0 -155z m-410 -420 l0 -155
-155 0 -155 0 0 155 0 155 155 0 155 0 0 -155z m410 0 l0 -156 -152 3 -153 3
-3 153 -3 152 156 0 155 0 0 -155z m290 -4175 c768 -28 1611 -109 2345 -225
276 -44 365 -59 540 -91 455 -83 1193 -249 1218 -273 5 -5 -23 -78 -62 -162
-38 -84 -68 -155 -66 -157 1 -2 97 -33 212 -70 114 -37 208 -71 209 -77 0 -5
-96 -119 -215 -253 -119 -134 -217 -248 -218 -255 -1 -7 44 -181 101 -387 75
-274 99 -376 90 -378 -7 -2 -174 28 -371 67 -197 39 -456 89 -577 110 -120 22
-220 41 -222 43 -1 2 13 50 33 107 19 57 31 107 26 111 -4 4 -116 31 -248 59
-933 198 -1950 321 -2865 346 -113 3 -278 8 -367 11 l-163 5 0 -54 0 -55 228
-6 c967 -27 1623 -95 2482 -256 295 -56 322 -62 327 -76 3 -9 -163 -234 -269
-362 -207 -253 -460 -516 -718 -745 -228 -204 -354 -304 -783 -621 -18 -14
-40 -50 -63 -106 -153 -377 -480 -653 -904 -762 -152 -40 -414 -50 -580 -24
-369 59 -708 270 -903 563 -62 92 -146 260 -147 290 0 14 9 6 -265 211 -498
373 -885 735 -1243 1163 -91 109 -303 391 -298 397 16 16 650 129 991 176 565
80 1356 146 1750 146 61 0 154 3 208 7 l97 6 0 53 0 53 -167 -5 c-1229 -36
-2061 -127 -3155 -346 -169 -34 -313 -65 -319 -69 -9 -5 -3 -34 21 -109 23
-72 29 -104 21 -109 -6 -4 -104 -24 -219 -45 -114 -21 -364 -69 -557 -107
-192 -38 -356 -69 -363 -69 -19 0 -15 16 114 418 93 293 111 358 101 372 -7 9
-96 107 -198 216 -246 263 -254 273 -237 279 7 3 114 34 237 70 123 36 226 66
227 68 2 2 -26 74 -62 161 -36 87 -64 160 -62 161 10 8 448 112 717 170 1473
320 3117 468 4591 415z M5585 5329 c-1052 -47 -1901 -146 -2880 -335 -322 -62
-826 -174 -922 -205 l-32 -10 64 -155 c63 -153 64 -155 42 -163 -12 -5 -105
-32 -207 -61 -102 -30 -189 -57 -194 -61 -7 -6 145 -175 341 -380 l44 -46 -15
-37 c-20 -48 -196 -605 -196 -620 0 -8 70 2 217 31 120 24 317 62 438 84 121
22 221 42 222 43 2 1 -13 48 -31 104 -19 56 -31 104 -26 107 14 8 335 79 560
124 1054 207 2021 306 3125 318 1071 12 2042 -67 3060 -247 357 -64 872 -175
906 -196 4 -2 -8 -47 -27 -99 -19 -53 -34 -100 -34 -105 0 -4 33 -14 73 -20
62 -10 572 -107 765 -145 36 -7 62 -9 62 -3 0 5 -38 149 -85 321 -47 171 -85
318 -85 327 0 17 47 72 247 292 l134 147 -188 61 c-103 33 -193 60 -200 60 -7
0 -13 3 -13 6 0 6 46 110 104 236 l35 77 -52 15 c-99 28 -502 118 -797 176
-967 193 -1986 315 -3000 360 -259 11 -1190 11 -1455 -1z m399 -287 c3 -5 28
-111 56 -238 72 -324 69 -314 92 -314 17 0 19 -6 16 -57 l-3 -58 -92 -3 -93
-3 0 61 c0 48 3 60 16 60 11 0 14 6 9 23 -11 34 -17 37 -73 30 -45 -5 -52 -9
-52 -28 0 -13 7 -25 15 -29 11 -4 15 -21 15 -61 l0 -55 -75 -2 c-41 -1 -83 -2
-92 -2 -15 -1 -19 9 -21 55 -3 49 0 57 17 62 13 3 22 16 25 38 4 19 21 116 39
216 31 171 32 182 15 186 -15 4 -18 16 -18 61 l0 55 93 4 c50 1 95 4 99 5 4 1
9 -2 12 -6z m437 -137 c24 -80 46 -145 49 -145 3 0 25 60 49 133 24 72 47 137
51 142 5 6 43 9 89 7 l81 -4 0 -55 c0 -46 -3 -56 -20 -60 -19 -5 -20 -14 -20
-219 0 -184 2 -214 15 -214 12 0 15 -13 15 -60 l0 -61 -92 3 -93 3 -3 53 c-3
47 -1 54 17 59 20 5 21 12 20 117 l-1 111 -42 -128 -41 -128 -30 3 c-29 3 -31
5 -67 132 -21 71 -40 131 -43 134 -3 3 -5 -49 -5 -116 0 -116 1 -122 20 -122
19 0 21 -5 18 -57 l-3 -58 -90 0 -90 0 -3 58 c-3 52 -1 57 18 57 20 0 20 5 20
219 0 210 -1 219 -20 224 -17 4 -20 14 -20 54 0 27 3 53 7 56 3 4 43 7 88 7
l82 0 44 -145z m-796 40 c10 -112 8 -115 -60 -115 l-55 0 0 40 0 40 -46 0 -47
0 7 -46 c3 -26 6 -61 6 -78 l0 -31 65 3 65 4 0 -61 0 -61 -60 0 -60 0 0 -78
c0 -43 2 -81 4 -83 3 -3 23 -3 45 -1 40 4 41 5 41 43 l0 39 54 0 54 0 7 -96
c4 -52 5 -97 3 -99 -1 -1 -83 -6 -180 -10 l-178 -7 0 56 c0 43 4 58 16 63 15
5 16 22 10 142 -11 231 -17 291 -31 291 -13 0 -25 43 -25 91 0 28 1 28 68 32
37 2 117 4 179 5 l111 2 7 -85z m1667 66 c4 -3 24 -128 44 -278 33 -235 40
-272 56 -276 15 -4 18 -16 18 -61 l0 -56 -72 0 c-114 0 -118 3 -118 66 0 41 4
54 15 54 10 0 15 10 15 30 0 29 -1 30 -50 30 -27 0 -53 1 -57 3 -4 1 -10 -10
-14 -25 -5 -21 -4 -28 7 -28 11 0 14 -15 14 -61 l0 -62 -87 7 c-49 4 -91 10
-94 14 -3 4 -4 31 -1 60 3 40 8 52 21 52 13 0 27 40 69 203 58 224 58 227 37
227 -12 0 -13 10 -9 48 3 26 7 52 9 58 3 11 184 7 197 -5z m-2088 -47 c3 -26
6 -70 6 -99 0 -57 -9 -65 -72 -65 -24 0 -27 4 -34 45 -4 29 -11 45 -21 45 -15
0 -14 -28 8 -285 5 -60 9 -117 9 -126 0 -9 8 -19 19 -22 13 -3 20 -18 25 -57
4 -29 4 -55 1 -59 -4 -3 -49 -8 -101 -9 l-94 -4 0 34 c0 18 -3 43 -6 56 -5 18
-2 22 15 22 25 0 24 -9 11 175 -19 252 -20 265 -36 265 -10 0 -14 -13 -14 -45
0 -42 -1 -44 -34 -50 -68 -13 -70 -10 -78 95 -4 52 -4 98 0 102 7 7 212 24
323 27 l66 1 7 -46z m2531 20 c78 -10 125 -112 99 -212 -6 -21 -11 -23 -63
-20 l-56 3 4 49 c4 56 -5 66 -60 66 -36 0 -37 -1 -42 -42 -14 -101 -30 -357
-24 -372 5 -13 17 -16 49 -14 43 3 43 3 46 46 4 50 14 57 78 47 l46 -7 -4 -64
c-4 -61 -6 -67 -48 -109 l-45 -44 -86 7 c-82 7 -88 9 -115 41 -51 60 -52 64
-48 116 2 27 11 138 19 245 l14 195 47 42 c51 45 48 45 189 27z m-3198 -116
c5 -51 6 -96 3 -99 -3 -4 -29 -9 -57 -13 l-53 -7 0 41 c0 39 -1 40 -32 40 -55
0 -60 -9 -53 -87 l7 -71 63 5 62 5 7 -32 c15 -79 7 -90 -68 -90 -24 0 -45 -2
-47 -5 -3 -2 -1 -41 5 -85 7 -64 12 -80 23 -76 8 4 28 6 45 6 29 0 30 1 26 43
l-3 42 56 3 57 3 7 -93 c4 -51 7 -95 6 -98 -2 -6 -341 -43 -346 -38 -2 2 -6
29 -10 61 -6 49 -5 57 9 57 20 0 20 4 -4 220 -11 96 -20 183 -20 193 0 10 -8
17 -19 17 -15 0 -20 10 -25 51 -4 28 -4 54 -1 58 7 6 255 38 316 40 l37 1 9
-92z m3611 76 c41 -3 75 -11 77 -18 1 -6 13 -130 25 -276 12 -145 24 -268 26
-272 3 -5 11 -8 18 -8 10 0 11 -13 5 -56 -4 -31 -9 -57 -11 -58 -2 -2 -42 1
-90 7 -97 10 -95 8 -82 90 4 23 12 37 21 37 10 0 13 9 11 28 -3 25 -7 27 -58
33 -30 3 -56 5 -57 5 -1 -1 -4 -13 -8 -29 -5 -20 -4 -27 7 -27 12 0 14 -11 10
-52 -2 -29 -7 -56 -11 -59 -6 -6 -170 7 -177 14 -2 1 0 28 3 60 5 46 9 57 24
57 13 0 26 25 53 108 20 59 52 152 70 207 27 79 31 101 20 103 -15 4 -18 39
-8 91 6 28 10 31 33 27 14 -3 59 -8 99 -12z m-4044 -56 c14 -67 12 -88 -6 -94
-12 -3 -17 -12 -14 -22 2 -9 15 -104 27 -209 20 -165 26 -193 40 -193 17 0 29
-37 29 -90 0 -30 11 -26 -135 -46 -36 -5 -45 -3 -45 8 0 9 -3 36 -6 62 -6 38
-4 46 10 46 19 0 19 -2 5 97 -18 137 -21 137 -44 -1 -20 -125 -22 -130 -48
-137 -32 -9 -31 -10 -92 124 -26 59 -50 106 -52 104 -2 -2 2 -50 9 -107 10
-85 15 -104 30 -108 18 -4 24 -18 31 -79 4 -36 11 -33 -116 -52 -65 -9 -62
-12 -71 62 -4 37 -3 47 9 47 20 0 20 3 -12 233 -23 170 -29 197 -44 197 -13 0
-19 11 -24 44 -10 66 -7 70 80 82 l78 11 67 -141 67 -141 22 125 c35 195 31
184 77 191 90 14 123 11 128 -13z m4496 4 l125 -18 36 -51 35 -51 -35 -241
-36 -241 -46 -40 -46 -39 -141 17 -142 17 0 26 c0 52 12 89 29 89 15 0 21 32
46 211 26 195 27 212 12 221 -13 7 -16 18 -11 51 11 79 -6 74 174 49z m475
-73 c77 -12 144 -25 149 -30 8 -7 -18 -176 -28 -187 -3 -2 -28 -1 -56 3 l-51
7 2 39 c4 45 4 45 -42 53 l-35 6 -12 -72 c-12 -83 -13 -83 60 -92 l50 -7 -7
-52 c-4 -29 -10 -55 -14 -59 -3 -3 -26 -3 -51 2 -78 16 -75 18 -87 -67 -6 -43
-11 -78 -10 -79 1 -1 21 -4 43 -8 l41 -6 7 41 c6 40 6 40 44 34 59 -10 72 -16
72 -28 0 -19 -30 -170 -35 -175 -4 -4 -275 34 -323 45 -15 3 -21 11 -18 22 2
9 7 33 11 54 4 26 11 37 23 37 14 0 22 29 46 188 16 103 31 199 34 215 3 20 0
27 -12 27 -15 0 -16 7 -11 48 10 71 12 74 42 68 16 -3 91 -15 168 -27z m-5603
-34 c53 -41 51 -35 94 -338 l26 -188 -33 -49 -33 -49 -83 -11 c-84 -12 -84
-12 -123 15 -22 15 -45 34 -52 42 -6 8 -29 121 -50 250 l-37 235 31 47 c17 25
33 48 35 50 4 5 128 28 159 30 11 0 41 -15 66 -34z m5935 -25 l61 -12 11 -77
c6 -42 14 -109 17 -148 4 -40 11 -73 15 -73 5 0 9 4 9 9 0 7 124 234 136 250
4 5 141 -21 154 -29 20 -13 1 -100 -24 -110 -19 -7 -26 -31 -59 -196 -21 -104
-41 -197 -43 -206 -4 -12 0 -18 11 -18 15 0 16 -7 10 -46 -9 -64 -15 -75 -34
-70 -9 3 -45 10 -81 16 -36 7 -68 13 -71 16 -14 8 14 107 31 111 13 4 23 30
39 105 12 56 20 102 18 104 -1 2 -30 -47 -63 -109 -57 -107 -61 -112 -89 -109
-17 2 -31 5 -32 6 -2 1 -8 57 -15 124 -7 67 -15 119 -19 114 -6 -7 -39 -165
-39 -189 0 -7 7 -13 16 -13 12 0 14 -7 10 -30 -3 -16 -9 -44 -12 -60 -4 -23
-10 -30 -22 -26 -10 2 -50 10 -90 16 l-74 12 7 52 c9 61 11 66 33 66 14 0 23
35 56 206 35 190 37 208 22 216 -9 5 -15 17 -12 26 2 9 7 34 11 55 5 34 9 38
28 34 12 -3 50 -11 84 -17z m-6300 -50 c9 -42 8 -51 -7 -62 -16 -12 -14 -27
20 -217 33 -184 38 -205 58 -212 15 -6 22 -17 22 -36 0 -15 3 -38 6 -49 5 -20
-1 -23 -82 -38 -48 -9 -89 -14 -91 -13 -1 2 -7 26 -12 53 -8 40 -7 51 5 61 13
9 14 21 4 75 -16 92 -12 87 -67 76 -26 -6 -49 -11 -50 -12 -3 -3 15 -112 23
-138 3 -10 11 -18 19 -18 14 0 20 -13 30 -71 l7 -36 -88 -17 c-97 -20 -98 -20
-108 48 -5 31 -3 43 9 52 23 17 -50 424 -76 424 -13 0 -20 14 -28 51 -6 29
-10 53 -9 54 4 4 159 35 173 35 21 0 32 -101 12 -111 -13 -8 -13 -17 -1 -76 8
-37 16 -69 19 -71 2 -2 25 -1 51 3 45 6 46 7 40 38 -3 18 -8 51 -12 75 -5 31
-11 42 -24 42 -14 0 -21 13 -29 51 -6 29 -9 54 -6 57 7 7 122 30 156 31 24 1
27 -4 36 -49z m6881 -66 c71 -15 73 -17 67 -41 -3 -14 -9 -38 -12 -54 -3 -16
-12 -29 -20 -29 -12 0 -13 -12 -8 -67 4 -38 8 -69 10 -71 1 -1 19 23 39 54 26
38 34 59 27 64 -11 6 0 87 14 110 4 7 164 -25 173 -34 1 -2 -3 -28 -11 -57
-11 -44 -17 -54 -33 -52 -31 4 -180 -229 -200 -313 -14 -60 -13 -67 1 -78 14
-10 14 -19 5 -64 -7 -28 -15 -52 -18 -52 -6 0 -33 6 -158 35 -20 4 -21 7 -9
57 9 41 16 54 32 56 16 2 23 15 32 59 15 76 14 95 -10 249 -17 102 -25 134
-36 134 -12 0 -14 9 -8 46 9 64 15 75 34 70 9 -3 49 -13 89 -22z m-7718 -190
c28 -52 58 -98 67 -101 9 -4 55 1 103 10 132 26 131 27 46 -67 -42 -46 -76
-86 -76 -89 0 -3 21 -49 46 -102 25 -53 44 -98 42 -100 -2 -2 -47 17 -101 42
l-98 47 -81 -80 -80 -79 6 70 c3 39 8 90 12 115 l5 45 -95 50 c-53 27 -96 52
-96 55 0 4 45 15 101 25 117 22 110 13 129 158 7 53 14 97 15 97 2 0 26 -43
55 -96z m8369 -135 l6 -92 82 -21 c45 -12 85 -24 89 -28 4 -4 -30 -25 -76 -46
l-83 -38 2 -99 1 -100 -27 30 c-16 17 -44 50 -63 74 l-35 43 -88 -36 c-48 -20
-89 -36 -92 -36 -3 0 18 38 45 84 28 47 50 87 50 89 0 3 -25 37 -56 77 -30 40
-53 74 -50 77 3 3 44 -4 92 -16 70 -18 89 -19 96 -9 4 7 27 44 49 81 23 37 44
65 47 62 3 -3 8 -46 11 -96z M5901 4760 c-7 -41 -13 -82 -14 -90 -2 -11 6 -14
28 -12 17 2 31 5 33 7 1 1 -6 40 -16 86 l-19 84 -12 -75z M7184 4720 c-11 -44
-18 -82 -16 -85 3 -3 18 -5 34 -5 l29 0 -6 54 c-16 123 -18 125 -41 36z M8117
4723 c-3 -4 -14 -39 -26 -77 -23 -74 -20 -86 26 -86 20 0 21 3 16 83 -6 85 -8
94 -16 80z M8556 4648 c-10 -67 -23 -162 -30 -210 -7 -49 -10 -90 -8 -93 3 -3
25 -5 48 -5 51 0 44 -22 80 224 14 98 22 182 17 187 -4 4 -26 11 -49 14 l-40
7 -18 -124z M3328 4683 c-10 -2 -18 -13 -18 -24 0 -27 59 -379 65 -389 6 -9
75 -2 87 9 7 6 -45 369 -57 398 -4 13 -42 15 -77 6z M6190 3363 c-489 -34
-908 -365 -1059 -835 -125 -393 -16 -840 279 -1138 331 -336 841 -444 1295
-275 380 142 635 438 731 850 27 116 25 355 -4 483 -128 561 -663 955 -1242
915z m198 -74 c139 -15 241 -43 205 -56 -7 -3 -52 -28 -100 -57 l-88 -52 -80
6 c-110 7 -285 -6 -378 -28 l-77 -19 -82 33 -83 33 86 40 c131 61 315 106 457
110 23 0 86 -4 140 -10z m6 -189 c24 -9 93 -104 185 -253 l41 -67 -132 -195
-132 -195 -141 0 c-77 0 -183 -3 -236 -6 l-96 -7 -108 162 c-59 90 -109 171
-112 181 -8 31 88 197 172 296 l43 50 104 18 c57 10 110 19 118 21 39 7 272 4
294 -5z m811 -290 c127 -192 209 -473 189 -651 l-7 -59 -32 29 c-18 16 -47 37
-63 47 -27 15 -33 28 -48 93 -23 105 -68 230 -120 335 l-44 89 26 86 c14 47
28 92 30 99 6 20 19 8 69 -68z m-410 -76 c50 -8 130 -25 178 -36 l88 -20 26
-51 c53 -105 94 -212 123 -320 l30 -111 -34 -60 c-63 -112 -194 -295 -212
-296 -11 0 -368 65 -410 75 -16 3 -29 26 -54 92 -18 49 -57 152 -87 230 l-54
143 128 190 c124 184 129 190 158 185 17 -2 71 -12 120 -21z m-1493 -56 c-3
-57 -13 -91 -43 -154 -50 -105 -79 -217 -86 -332 -9 -133 -23 -124 -23 15 0
121 14 208 51 323 28 89 90 220 104 220 1 0 0 -33 -3 -72z m360 -20 c18 -29
69 -108 114 -175 l82 -121 -33 -109 c-18 -59 -45 -162 -60 -228 -14 -66 -32
-125 -39 -130 -8 -6 -85 -35 -172 -65 l-158 -54 -41 46 c-23 26 -68 90 -101
144 l-59 98 1 106 c2 116 27 220 85 349 30 67 35 72 88 97 50 24 235 91 254
93 4 1 22 -23 39 -51z m1123 -814 c110 -19 203 -39 207 -42 10 -10 26 -238 21
-292 -4 -36 -13 -54 -46 -88 -66 -68 -154 -135 -255 -192 l-93 -53 -97 12
c-114 14 -262 48 -278 65 -11 10 -54 274 -54 328 0 18 21 39 93 90 50 37 133
100 182 142 50 41 97 73 105 71 8 -3 105 -21 215 -41z m-946 -44 c81 -58 177
-119 274 -174 41 -23 47 -31 47 -59 0 -18 9 -90 20 -161 11 -71 20 -136 20
-145 0 -26 -211 -90 -298 -91 -71 0 -323 149 -406 240 -36 40 -70 147 -85 265
-7 62 -6 68 13 76 47 20 302 107 316 108 8 0 53 -26 99 -59z m1321 -298 c0
-11 -137 -143 -198 -191 -82 -63 -292 -171 -333 -171 -24 0 -3 19 49 44 92 45
217 133 293 208 41 40 89 76 112 85 23 9 46 20 52 25 11 10 25 11 25 0z
m-1623 -153 c48 -39 123 -91 166 -116 87 -51 98 -69 15 -27 -78 39 -160 97
-225 159 -81 76 -60 68 44 -16z M5655 9150 c-137 -4 -339 -11 -447 -15 l-198
-8 0 -644 0 -644 43 5 c40 6 314 19 649 31 l158 6 2 -623 c2 -343 2 -660 0
-705 l-3 -82 -107 -3 -107 -3 -3 -431 -2 -431 597 1 c329 0 676 -3 771 -8
l172 -8 0 435 0 435 -105 7 -105 7 0 704 0 705 163 -7 c89 -4 271 -12 405 -18
134 -6 245 -9 248 -7 2 2 4 287 4 632 l0 627 -57 6 c-344 35 -1421 54 -2078
36z m1480 -140 c149 -6 325 -13 393 -16 l122 -7 0 -503 0 -502 -37 4 c-35 4
-528 24 -580 24 l-23 0 0 180 0 180 -90 0 -90 0 0 -1015 0 -1015 88 0 c48 0
97 -3 110 -6 l22 -6 0 -297 0 -297 -630 1 -630 0 0 302 0 302 108 3 107 3 3
1005 c1 553 0 1010 -2 1015 -2 6 -39 9 -92 7 l-89 -3 0 -177 -1 -177 -94 -6
c-52 -4 -204 -10 -338 -14 l-242 -7 2 503 3 504 120 8 c383 24 1267 27 1860 7z
M4785 9108 c-285 -19 -657 -53 -935 -84 -168 -19 -331 -37 -362 -41 l-58 -6 0
-450 0 -449 85 7 85 7 0 -181 c0 -206 12 -184 -105 -196 -83 -8 -355 -44 -383
-50 l-22 -5 2 182 3 183 100 15 100 16 3 452 2 453 -32 -6 c-18 -3 -123 -19
-233 -36 -275 -42 -607 -100 -940 -164 -354 -69 -397 -78 -412 -88 -10 -6 -13
-110 -13 -463 0 -426 1 -454 18 -454 9 0 60 9 112 20 52 11 101 20 108 20 14
0 18 -1735 4 -1744 -5 -3 -53 -15 -108 -27 -54 -11 -107 -25 -116 -30 -17 -9
-18 -42 -18 -464 0 -438 1 -455 19 -455 10 0 108 21 217 46 394 90 852 180
1199 234 77 13 150 26 163 31 l22 9 0 436 0 437 -37 -6 c-21 -3 -66 -9 -100
-13 l-63 -7 0 217 c0 119 2 216 4 216 2 0 25 4 53 9 41 8 432 61 448 61 3 0 4
-98 3 -217 l-3 -218 -50 -7 c-27 -5 -65 -10 -82 -13 l-33 -6 0 -439 0 -439 28
4 c286 46 1019 124 1392 148 l55 3 3 434 2 433 -104 -6 -103 -7 -7 47 c-8 57
-8 1690 0 1719 5 19 16 22 107 30 l102 9 3 444 c2 244 -1 447 -5 450 -4 4 -57
4 -118 -1z m-15 -458 l0 -320 -44 0 c-23 0 -71 -3 -105 -6 l-61 -7 0 -1024 0
-1023 83 5 c45 4 92 8 105 11 l22 4 0 -305 c0 -197 -4 -305 -10 -305 -75 0
-881 -83 -1070 -110 -36 -5 -77 -10 -92 -10 l-28 0 0 304 0 303 53 7 c28 4 67
9 85 12 l32 6 0 349 c0 276 -3 349 -13 349 -18 0 -433 -54 -619 -81 l-158 -22
0 -350 0 -350 53 6 c28 3 73 9 100 13 l47 7 0 -312 c0 -171 -3 -311 -6 -311
-65 0 -975 -176 -1214 -234 -30 -8 -67 -17 -83 -20 l-27 -6 0 329 0 329 115
27 115 26 2 1006 c2 552 2 1006 0 1007 -1 2 -51 -7 -110 -20 -59 -13 -110 -24
-114 -24 -5 0 -8 148 -8 328 l0 328 198 38 c108 21 267 51 352 67 209 40 749
129 778 129 l22 0 0 -314 0 -314 -62 -11 c-35 -6 -84 -14 -110 -17 l-48 -7 0
-313 c0 -191 4 -314 9 -314 6 0 72 9 148 20 114 17 610 80 628 80 3 0 5 142 5
316 l0 316 -85 -7 -85 -7 0 316 c0 174 3 316 8 316 4 0 126 13 272 30 146 16
369 38 495 49 127 11 248 22 270 24 22 2 66 4 98 5 l57 2 0 -320z M8380 8626
l0 -436 43 0 c76 0 76 3 8 -211 -34 -107 -145 -457 -247 -779 -102 -322 -200
-630 -217 -684 l-32 -99 -90 2 c-50 1 -99 3 -110 4 -20 2 -20 -5 -23 -430 l-2
-432 52 -5 c29 -3 143 -12 253 -21 327 -26 791 -77 1108 -121 l47 -7 0 425 0
426 -75 7 c-70 6 -75 8 -75 30 0 13 3 26 8 28 4 2 84 -6 177 -18 94 -12 234
-30 312 -40 78 -10 146 -21 152 -24 5 -3 13 -19 17 -35 l7 -28 -77 7 -76 7 0
-420 0 -421 33 -5 c524 -84 1220 -225 1457 -296 19 -5 38 -10 42 -10 5 0 8
204 8 453 l0 453 -114 29 -115 28 -20 66 c-10 36 -123 451 -251 921 -127 470
-242 891 -255 935 -13 44 -31 107 -38 140 -8 33 -53 202 -100 375 -48 173 -91
334 -97 356 -12 49 7 43 -250 83 -440 69 -1073 150 -1382 177 l-78 7 0 -437z
m400 263 c463 -52 1169 -154 1186 -172 6 -7 71 -232 144 -502 72 -269 158
-587 190 -705 177 -648 411 -1512 422 -1560 l14 -55 105 -25 104 -25 3 -319 2
-319 -27 6 c-16 4 -113 26 -218 51 -271 63 -722 152 -980 194 l-50 7 -3 303
-2 302 27 0 c14 0 55 -5 90 -11 35 -6 66 -9 69 -7 2 3 -12 73 -32 155 l-37
151 -106 16 c-176 28 -743 97 -748 92 -9 -9 -82 -269 -78 -276 3 -4 37 -10 77
-14 40 -4 81 -9 91 -12 16 -5 17 -28 17 -305 0 -164 -3 -299 -7 -299 -5 0 -95
11 -201 25 -306 39 -868 95 -954 95 l-28 0 0 305 0 304 93 -6 92 -6 57 179
c31 99 106 339 168 534 61 195 179 565 261 821 82 257 149 471 149 476 0 6
-32 13 -71 17 -39 3 -75 8 -79 11 -9 6 -13 480 -4 552 l6 53 37 -5 c20 -3 119
-14 221 -26z M9322 7803 c-17 -60 -74 -252 -127 -428 -52 -176 -95 -323 -95
-326 0 -3 46 -11 103 -18 56 -7 171 -21 255 -33 84 -11 155 -18 158 -15 6 6
-23 113 -167 622 -43 154 -79 285 -79 292 0 39 -20 0 -48 -94z m83 -529 c19
-70 35 -129 35 -131 0 -6 -154 9 -162 16 -4 3 11 64 32 135 22 70 40 131 40
135 1 22 25 -45 55 -155z M3385 7984 c-55 -8 -125 -18 -155 -22 l-55 -7 -3
-98 c-1 -53 1 -97 5 -97 4 0 81 9 171 21 l163 22 -3 95 c-2 53 -7 96 -13 98
-5 1 -55 -5 -110 -12z M3318 6617 l-148 -20 0 -134 0 -134 53 7 c28 4 104 14
167 23 l115 16 3 133 c3 132 3 132 -20 131 -13 -1 -89 -11 -170 -22z"/>
</g>
<g transform="translate(0,12540) scale(1,-1)"
fill="#f5c542" stroke="none">
<path d="M1754 9805 c0 -154 2 -216 3 -137 2 79 2 205 0 280 -1 75 -3 11 -3
-143z M10775 9590 c0 -272 1 -384 2 -247 2 136 2 358 0 495 -1 136 -2 24 -2
-248z M1934 9005 c0 -88 2 -123 3 -77 2 46 2 118 0 160 -1 42 -3 5 -3 -83z
M6825 7320 c0 -542 1 -763 2 -492 2 270 2 714 0 985 -1 270 -2 49 -2 -493z
M10588 7380 c-2 -39 0 -70 5 -70 4 0 7 32 7 70 0 90 -7 90 -12 0z M10764 7290
c0 -52 1 -74 3 -47 2 26 2 68 0 95 -2 26 -3 4 -3 -48z M9034 5850 c0 -157 2
-221 3 -142 2 78 2 206 0 285 -1 78 -3 14 -3 -143z M11204 5180 c0 -162 2
-229 3 -147 2 81 2 213 0 295 -1 81 -3 14 -3 -148z M6047 5443 c18 -2 50 -2
70 0 21 2 7 4 -32 4 -38 0 -55 -2 -38 -4z M6533 5443 c15 -2 37 -2 50 0 12 2
0 4 -28 4 -27 0 -38 -2 -22 -4z M5953 5343 c15 -2 39 -2 55 0 15 2 2 4 -28 4
-30 0 -43 -2 -27 -4z M6633 5343 c15 -2 39 -2 55 0 15 2 2 4 -28 4 -30 0 -43
-2 -27 -4z M6207 5043 c-3 -5 18 -7 46 -5 92 5 104 9 30 11 -39 0 -74 -2 -76
-6z M5532 4754 c10 -3 19 -19 21 -37 4 -31 5 -31 3 3 -1 27 -5 35 -21 37 -14
1 -15 0 -3 -3z M6583 4625 c0 -44 2 -61 4 -37 2 23 2 59 0 80 -2 20 -4 1 -4
-43z M6693 4600 c0 -36 2 -50 4 -32 2 17 2 47 0 65 -2 17 -4 3 -4 -33z M2200
4436 c-7 -57 -15 -108 -19 -113 -3 -5 -46 -17 -96 -27 -49 -10 -97 -20 -105
-23 -9 -3 26 -25 84 -55 l99 -49 -6 -52 c-3 -29 -9 -81 -12 -117 l-6 -65 79
82 80 82 98 -48 c55 -27 100 -47 102 -46 2 2 -19 48 -47 102 l-49 99 74 84
c41 46 73 85 71 86 -2 2 -50 -5 -108 -15 -57 -11 -106 -18 -109 -16 -3 2 -27
46 -55 99 -27 53 -53 96 -56 96 -3 0 -12 -47 -19 -104z M10575 4340 c-27 -44
-53 -80 -58 -80 -5 0 -45 9 -89 21 -44 11 -82 18 -84 16 -3 -2 20 -36 51 -75
30 -39 55 -74 55 -79 0 -4 -20 -42 -45 -83 -25 -41 -45 -78 -45 -82 0 -3 36 9
79 28 43 19 84 34 90 34 5 0 36 -31 67 -70 31 -38 59 -70 62 -70 2 0 2 44 -2
98 l-6 97 85 39 c47 21 83 41 80 44 -3 3 -42 15 -87 27 l-83 22 -7 79 c-4 43
-9 87 -10 96 -2 11 -22 -13 -53 -62z M6003 4373 c15 -2 37 -2 50 0 12 2 0 4
-28 4 -27 0 -38 -2 -22 -4z M4728 3373 c166 -2 438 -2 605 0 166 1 30 2 -303
2 -333 0 -469 -1 -302 -2z M7208 3373 c166 -2 438 -2 605 0 166 1 30 2 -303 2
-333 0 -469 -1 -302 -2z M9080 2335 c-41 -41 -72 -75 -69 -75 2 0 38 34 79 75
41 41 72 75 69 75 -2 0 -38 -34 -79 -75z"/>
</g>
</g>
</svg>
